<?xml version="1.0" encoding="utf-8"?>
<!-- Generator: Adobe Illustrator 16.0.0, SVG Export Plug-In . SVG Version: 6.00 Build 0)  -->
<!DOCTYPE svg PUBLIC "-//W3C//DTD SVG 1.1//EN" "http://www.w3.org/Graphics/SVG/1.1/DTD/svg11.dtd">
<svg version="1.1" id="Capa_1" xmlns="http://www.w3.org/2000/svg" xmlns:xlink="http://www.w3.org/1999/xlink" x="0px" y="0px"
	 width="30.213px" height="27.692px" viewBox="0 0 30.213 27.692" enable-background="new 0 0 30.213 27.692" xml:space="preserve">
<symbol  id="Fotografía" viewBox="-33.5 -26.628 66.999 53.256">
	<path opacity="0.7" fill="#FFFFFF" stroke="#000000" stroke-miterlimit="10" d="M24.91,17.682l-4.124,5.772
		c-1.341,1.692-3.041,2.565-5.195,2.673H9.498c-2.156-0.108-3.854-0.981-5.195-2.673l-3.991-5.583H-23c-5.5,0-10-4.5-10-10v-23.999
		c0-5.5,4.5-10,10-10h45.999c5.5,0,10,4.5,10,10V7.871C32.999,12.717,29.504,16.783,24.91,17.682z M8.371,20.548
		c-0.005,0.01,0.229,0.241,0.518,0.38c0.278,0.154,0.604,0.208,0.609,0.202h6.093c0.005,0.008,0.329-0.048,0.609-0.202
		c0.287-0.14,0.52-0.37,0.518-0.378l1.913-2.679H6.459L8.371,20.548z M-2.019-18.044c-7.852,0-14.239,6.388-14.239,14.239
		c0,7.851,6.388,14.238,14.239,14.238c7.851,0,14.238-6.387,14.238-14.238C12.22-11.656,5.832-18.044-2.019-18.044z M-27-16.128
		V7.871c0,2.168,1.832,4,4,4h6.688c-4.258-3.884-6.945-9.459-6.945-15.676c0-6.563,2.979-12.427,7.656-16.323H-23
		C-25.168-20.128-27-18.296-27-16.128z M26.999-16.128c0-2.168-1.832-4-4-4H11.564c4.676,3.896,7.655,9.76,7.655,16.323
		c0,6.216-2.688,11.792-6.945,15.676h10.725c2.168,0,4-1.832,4-4V-16.128z"/>
</symbol>
<use xlink:href="#Fotografía"  width="66.999" height="53.256" id="XMLID_4_" x="-33.5" y="-26.628" transform="matrix(0.4437 0 0 -0.4437 15.1064 12.502)" overflow="visible"/>
</svg>
