<?xml version="1.0" encoding="utf-8"?>
<!-- Generator: Adobe Illustrator 16.0.0, SVG Export Plug-In . SVG Version: 6.00 Build 0)  -->
<!DOCTYPE svg PUBLIC "-//W3C//DTD SVG 1.1//EN" "http://www.w3.org/Graphics/SVG/1.1/DTD/svg11.dtd">
<svg version="1.1" id="Capa_1" xmlns="http://www.w3.org/2000/svg" xmlns:xlink="http://www.w3.org/1999/xlink" x="0px" y="0px"
	 width="250px" height="515.238px" viewBox="0 0 250 515.238" enable-background="new 0 0 250 515.238" xml:space="preserve">
<g>
	<linearGradient id="SVGID_1_" gradientUnits="userSpaceOnUse" x1="-54.9282" y1="439.8447" x2="305.9287" y2="78.9878">
		<stop  offset="0" style="stop-color:#575756"/>
		<stop  offset="0.0369" style="stop-color:#777676"/>
		<stop  offset="0.0832" style="stop-color:#959594"/>
		<stop  offset="0.1306" style="stop-color:#ABABAB"/>
		<stop  offset="0.1788" style="stop-color:#BBBBBA"/>
		<stop  offset="0.2282" style="stop-color:#C3C3C3"/>
		<stop  offset="0.2809" style="stop-color:#C6C6C6"/>
		<stop  offset="0.6685" style="stop-color:#DADADA"/>
		<stop  offset="0.8876" style="stop-color:#878787"/>
		<stop  offset="1" style="stop-color:#575756"/>
	</linearGradient>
	<path fill="url(#SVGID_1_)" d="M250,481.788c0,20.59-17.031,33.291-31.087,33.291H38.435c-12.082,1.317-35.836-5.259-35.836-31.099
		V42.047C2.598,33.339,2.598,0,44.911,0h164.503C230.138,0,250,14.016,250,42.485V481.788z"/>
	<rect x="2.598" y="42.047" opacity="0.7" fill="#FFFFFF" width="247.402" height="4.768"/>
	<rect x="2.072" y="470.358" opacity="0.7" fill="#FFFFFF" width="247.403" height="4.768"/>
	<circle opacity="0.3" fill="#FFFFFF" cx="27.273" cy="488.176" r="23.875"/>
	<circle opacity="0.3" fill="#FFFFFF" cx="220.535" cy="490.61" r="23.874"/>
	<circle opacity="0.3" fill="#FFFFFF" cx="30.321" cy="28.151" r="23.874"/>
	<circle opacity="0.3" fill="#FFFFFF" cx="220.535" cy="28.287" r="23.874"/>
	<linearGradient id="SVGID_2_" gradientUnits="userSpaceOnUse" x1="-2.4868" y1="91.3501" x2="2.1385" y2="91.3029">
		<stop  offset="0.278" style="stop-color:#EDEDED"/>
		<stop  offset="0.4667" style="stop-color:#E8E8E8"/>
		<stop  offset="0.7377" style="stop-color:#DADADA"/>
		<stop  offset="1" style="stop-color:#C7C6C6"/>
	</linearGradient>
	<rect y="76.702" fill="url(#SVGID_2_)" width="2.598" height="29.221"/>
	<linearGradient id="SVGID_3_" gradientUnits="userSpaceOnUse" x1="1.2993" y1="146.1011" x2="1.2993" y2="127.8384">
		<stop  offset="0.0516" style="stop-color:#C6C6C6"/>
		<stop  offset="0.5271" style="stop-color:#DADADA"/>
		<stop  offset="0.6209" style="stop-color:#D5D5D5"/>
		<stop  offset="0.7527" style="stop-color:#C7C7C7"/>
		<stop  offset="0.9062" style="stop-color:#AFAFAF"/>
		<stop  offset="0.9998" style="stop-color:#9D9D9C"/>
	</linearGradient>
	<rect y="127.838" fill="url(#SVGID_3_)" width="2.598" height="18.263"/>
	<linearGradient id="SVGID_4_" gradientUnits="userSpaceOnUse" x1="1.2993" y1="187.4976" x2="1.2993" y2="169.2344">
		<stop  offset="0.0516" style="stop-color:#C6C6C6"/>
		<stop  offset="0.5271" style="stop-color:#DADADA"/>
		<stop  offset="0.6209" style="stop-color:#D5D5D5"/>
		<stop  offset="0.7527" style="stop-color:#C7C7C7"/>
		<stop  offset="0.9062" style="stop-color:#AFAFAF"/>
		<stop  offset="0.9998" style="stop-color:#9D9D9C"/>
	</linearGradient>
	<rect y="169.234" fill="url(#SVGID_4_)" width="2.598" height="18.263"/>
	<g>
		<linearGradient id="SVGID_5_" gradientUnits="userSpaceOnUse" x1="97.208" y1="102.2651" x2="126.467" y2="264.1711">
			<stop  offset="0" style="stop-color:#F6F6F8"/>
			<stop  offset="1" style="stop-color:#F6F6F8"/>
		</linearGradient>
		
			<linearGradient id="SVGID_6_" gradientUnits="userSpaceOnUse" x1="5.4526" y1="257.9819" x2="246.0693" y2="257.9819" gradientTransform="matrix(1 -3.000000e-004 3.000000e-004 1 0.3086 -0.2906)">
			<stop  offset="0" style="stop-color:#FCFCFE"/>
			<stop  offset="1" style="stop-color:#EEEFF4"/>
		</linearGradient>
		<path fill="url(#SVGID_5_)" stroke="url(#SVGID_6_)" stroke-width="1.3005" stroke-miterlimit="10" d="M245.851,479.5
			c0.005,20.379-16.464,32.952-30.061,32.956l-174.563,0.045c-11.686,1.305-34.663-5.195-34.67-30.772L6.446,44.326
			C6.444,35.707,6.434,2.71,47.36,2.699l159.115-0.041c20.044-0.005,39.258,13.862,39.267,42.04L245.851,479.5z"/>
		<rect x="23.646" y="78.181" stroke="#000000" stroke-width="2.5975" stroke-miterlimit="10" width="205" height="364"/>
		<g>
			<linearGradient id="SVGID_7_" gradientUnits="userSpaceOnUse" x1="126.147" y1="493.0264" x2="126.147" y2="458.0264">
				<stop  offset="0" style="stop-color:#FCFCFE"/>
				<stop  offset="1" style="stop-color:#EEEFF4"/>
			</linearGradient>
			<circle fill="url(#SVGID_7_)" cx="126.146" cy="479.642" r="22.597"/>
			<linearGradient id="SVGID_8_" gradientUnits="userSpaceOnUse" x1="59.1509" y1="109.1704" x2="88.4078" y2="271.0652">
				<stop  offset="0" style="stop-color:#FCFCFE"/>
				<stop  offset="1" style="stop-color:#EEEFF4"/>
			</linearGradient>
			<path fill="url(#SVGID_8_)" d="M131.999,486.957c-2.845,0-8.945,0-12.111,0c-0.416,0-1.219-0.772-1.219-1.219
				c0-2.786,0-8.666,0-11.931c0-0.466,0.623-1.48,1.057-1.48c3.21,0,9.354,0,12.273,0c0.574,0,1.625,1.125,1.625,1.74
				c0,2.787,0,8.579,0,11.235C133.625,485.904,132.559,486.957,131.999,486.957z"/>
			<g opacity="0.7">
				<g>
					<path fill="#FCFCFE" d="M131.816,472.327c0,0-1.52,0.203-3.799,0.354c-2.279,0.157-5.318,0.283-8.358,0.288l-0.071,0.001
						h-0.036h-0.009c0.164-0.011,0.041-0.002,0.075-0.004l-0.018,0.002c-0.011,0.003-0.076,0.009-0.042,0.009
						c0.03,0,0.061-0.008,0.087-0.021c0.021-0.006-0.02,0.011-0.054,0.051c-0.076,0.073-0.166,0.192-0.244,0.313
						c-0.078,0.122-0.147,0.257-0.188,0.372c-0.019,0.053-0.031,0.113-0.031,0.113c-0.005,0.002-0.003,0.162-0.005,0.235
						c-0.008,0.747-0.012,1.483-0.042,2.196c-0.04,1.424-0.111,2.754-0.196,3.894c-0.16,2.279-0.399,3.799-0.399,3.799
						s-0.239-1.52-0.399-3.799c-0.085-1.14-0.156-2.47-0.196-3.894c-0.03-0.713-0.034-1.449-0.042-2.196
						c0.001-0.114-0.007-0.142,0.002-0.327c0.014-0.187,0.052-0.31,0.091-0.436c0.082-0.241,0.185-0.444,0.306-0.644
						c0.122-0.2,0.262-0.386,0.462-0.574c0.1-0.093,0.217-0.187,0.406-0.279c0.071-0.03,0.146-0.055,0.221-0.072
						c0.078-0.017,0.062-0.01,0.098-0.016l0.119-0.009h0.036l0.071,0.001c3.04,0.005,6.079,0.131,8.358,0.288
						C130.296,472.124,131.816,472.327,131.816,472.327z"/>
				</g>
				<g opacity="0.4">
					<path fill="#D9DADF" d="M121.106,486.086c0,0,0.372-0.045,1.024-0.098c0.651-0.042,1.582-0.137,2.699-0.188
						c1.117-0.063,2.42-0.118,3.816-0.148c0.698-0.013,1.419-0.025,2.153-0.039c0.35-0.002,0.704-0.005,1.058-0.008
						c0.137-0.002,0.441-0.205,0.661-0.419c0.227-0.209,0.441-0.498,0.501-0.692c0.022-0.016,0.016-0.235,0.019-0.42l0.004-0.552
						c0.015-0.732,0.029-1.454,0.043-2.152c0.037-1.396,0.087-2.699,0.15-3.816c0.056-1.116,0.141-2.047,0.183-2.699
						c0.051-0.651,0.093-1.023,0.093-1.023s0.042,0.372,0.093,1.023c0.042,0.652,0.126,1.583,0.183,2.699
						c0.063,1.117,0.113,2.421,0.15,3.816c0.014,0.698,0.029,1.42,0.043,2.152l0.004,0.552c-0.011,0.183,0.036,0.341-0.047,0.684
						c-0.17,0.515-0.446,0.821-0.747,1.129c-0.315,0.284-0.629,0.586-1.237,0.678c-0.387-0.002-0.772-0.003-1.155-0.004
						c-0.733-0.014-1.455-0.026-2.153-0.039c-1.396-0.03-2.699-0.085-3.816-0.148c-1.117-0.052-2.048-0.146-2.699-0.188
						C121.479,486.131,121.106,486.086,121.106,486.086z"/>
				</g>
			</g>
		</g>
		<linearGradient id="SVGID_9_" gradientUnits="userSpaceOnUse" x1="188.6748" y1="85.7358" x2="217.9337" y2="247.6415">
			<stop  offset="0" style="stop-color:#FCFCFE"/>
			<stop  offset="0.2326" style="stop-color:#F8F8FA;stop-opacity:0.8604"/>
			<stop  offset="1" style="stop-color:#F6F6F8;stop-opacity:0.4"/>
		</linearGradient>
		<path opacity="0.6" fill="url(#SVGID_9_)" d="M243.191,46.03c0-28.178-19.209-42.05-39.254-42.05h-92.654l131.908,391.873V46.03z"
			/>
		<g>
			<circle fill="#3C3C3B" cx="129.561" cy="30.722" r="4.064"/>
			<g>
				<circle fill="#3C3C3B" cx="97.373" cy="49.254" r="3.251"/>
				<circle opacity="0.5" fill="#706F6F" cx="129.56" cy="30.722" r="2.571"/>
				<path fill="#3C3C3B" d="M150.368,49.66c0,1.571-1.274,2.845-2.845,2.845h-34.951c-1.572,0-2.846-1.273-2.846-2.845l0,0
					c0-1.571,1.273-2.845,2.846-2.845h34.951C149.094,46.815,150.368,48.089,150.368,49.66L150.368,49.66z"/>
				<path fill="#3C3C3B" stroke="#C6C6C6" stroke-miterlimit="10" d="M150.368,49.66c0,1.571-1.274,2.845-2.845,2.845h-34.951
					c-1.572,0-2.846-1.273-2.846-2.845l0,0c0-1.571,1.273-2.845,2.846-2.845h34.951C149.094,46.815,150.368,48.089,150.368,49.66
					L150.368,49.66z"/>
			</g>
		</g>
	</g>
</g>
</svg>
