<?xml version="1.0" encoding="utf-8"?>
<!-- Generator: Adobe Illustrator 16.0.0, SVG Export Plug-In . SVG Version: 6.00 Build 0)  -->
<!DOCTYPE svg PUBLIC "-//W3C//DTD SVG 1.1//EN" "http://www.w3.org/Graphics/SVG/1.1/DTD/svg11.dtd">
<svg version="1.1" id="Capa_1" xmlns="http://www.w3.org/2000/svg" xmlns:xlink="http://www.w3.org/1999/xlink" x="0px" y="0px"
	 width="30.213px" height="27.692px" viewBox="0 0 30.213 27.692" enable-background="new 0 0 30.213 27.692" xml:space="preserve">
<symbol  id="Cortar" viewBox="-28.268 -32.5 56.536 65.579">
	<path opacity="0.7" fill="#FFFFFF" stroke="#000000" stroke-miterlimit="10" d="M16.269-9c-2.421,0-4.663-0.752-6.517-2.029
		L5.85-6.383c2.885,1.123,5.955,2.785,7.716,5.133c4,5.334,13.166,18,14,21.5C28.398,23.75,26.398,32,26.398,32L0,0.58L-26.398,32
		c0,0-2-8.25-1.166-11.75c0.833-3.5,10-16.166,14-21.5c1.762-2.348,4.83-4.01,7.715-5.133l-3.902-4.645
		C-11.604-9.75-13.848-9-16.268-9c-6.352,0-11.5-5.148-11.5-11.5c0-6.35,5.148-11.5,11.5-11.5s11.5,5.15,11.5,11.5
		c0,2.162-0.607,4.178-1.645,5.906l5.228,6.219c0,0,0.447,0.076,1.185,0.238c0.738-0.162,1.186-0.238,1.186-0.238l5.229-6.219
		c-1.038-1.729-1.646-3.744-1.646-5.906c0-6.35,5.148-11.5,11.5-11.5s11.5,5.15,11.5,11.5C27.769-14.148,22.62-9,16.269-9z
		 M-16.268-26c-3.033,0-5.5,2.467-5.5,5.5s2.467,5.5,5.5,5.5s5.5-2.467,5.5-5.5S-13.234-26-16.268-26z M16.269-26
		c-3.032,0-5.5,2.467-5.5,5.5s2.468,5.5,5.5,5.5s5.5-2.467,5.5-5.5S19.301-26,16.269-26z"/>
</symbol>
<use xlink:href="#Cortar"  width="56.536" height="65.579" id="XMLID_3_" x="-28.268" y="-32.5" transform="matrix(0.2378 0.2378 0.2378 -0.2378 14.6445 14.6812)" overflow="visible"/>
</svg>
