<?xml version="1.0" encoding="utf-8"?>
<!-- Generator: Adobe Illustrator 16.0.0, SVG Export Plug-In . SVG Version: 6.00 Build 0)  -->
<!DOCTYPE svg PUBLIC "-//W3C//DTD SVG 1.1//EN" "http://www.w3.org/Graphics/SVG/1.1/DTD/svg11.dtd">
<svg version="1.1" id="Capa_1" xmlns="http://www.w3.org/2000/svg" xmlns:xlink="http://www.w3.org/1999/xlink" x="0px" y="0px"
	 width="30.213px" height="27.692px" viewBox="0 0 30.213 27.692" enable-background="new 0 0 30.213 27.692" xml:space="preserve">
<symbol  id="Herramientas" viewBox="-19.684 -47.917 62.998 63">
	<path opacity="0.7" fill="#FFFFFF" stroke="#000000" stroke-miterlimit="10" d="M32.595-26.973h-0.004
		c-0.19,0-0.377-0.02-0.564-0.029L12.708-7.684C11.354-6.331,9.39-5.963,7.688-6.545l3.017,8.836
		c0.494,1.455-0.008,3.602-1.094,4.689l-6.315,6.316c-1.09,1.09-3.236,1.592-4.689,1.096l-3.787-1.293
		c-0.619-0.211-1.012-0.564-1.115-1.002c-0.104-0.434,0.092-0.926,0.559-1.389l4.068-4.055c1.432-1.439,1.428-3.781-0.008-5.217
		l-4.359-4.359C-6.73-3.614-7.654-3.997-8.639-3.997c-0.994,0-1.922,0.385-2.619,1.082l-4.051,4.053
		c-0.467,0.463-0.957,0.662-1.391,0.559c-0.433-0.104-0.785-0.498-0.998-1.115l-1.295-3.787c-0.496-1.461,0.006-3.607,1.094-4.691
		l6.318-6.314c1.086-1.088,3.229-1.588,4.678-1.096l8.849,3.02c-0.583-1.703-0.216-3.67,1.136-5.021l19.319-19.32
		c-0.012-0.188-0.029-0.375-0.029-0.566c0-5.643,4.576-10.221,10.219-10.221c5.645,0,10.224,4.578,10.224,10.221
		C42.814-31.549,38.238-26.973,32.595-26.973z M32.595-42.553c-2.957,0-5.357,2.404-5.357,5.357c0,1.432,0.555,2.779,1.57,3.787
		c1.01,1.014,2.353,1.57,3.787,1.57c2.95,0,5.354-2.402,5.354-5.357C37.948-40.149,35.545-42.553,32.595-42.553z"/>
</symbol>
<use xlink:href="#Herramientas"  width="62.998" height="63" id="XMLID_3_" x="-19.684" y="-47.917" transform="matrix(-1.896391e-008 0.4338 0.4338 1.896391e-008 21.4414 8.7202)" overflow="visible"/>
</svg>
